<svg id="Laag_1" data-name="Laag 1" xmlns="http://www.w3.org/2000/svg" viewBox="0 0 1660 782"><path d="M1606.87,211.52m14.78,17.2c31.58,28.51,65,40,5.51,65.91-49.4,10.13-94-25.94-143.1-27.85-80.5,3.63-108.74,125.11-154.25,178.44,100.48,19.88,31.12,32,28.94,92-6.91,4.78.65,6.52-5.23,10.51-5.57,3.22,2.41,7.07-1.23,9.84a4.18,4.18,0,0,0-1.42,5.89c2.73,4.95-6.19,7.38-.79,12-.63,7.73-4.24,17.06-.34,25.13,3.16,9.19,14.41,19.69,11.13,28.71,2.45,11.84-18.77,32.28-27.3,23.08-27.6-44.75-22.32-99.22-4.34-147.24-9.74-16.05-50.38.09-70-3.24-11.75,4.58-8,22.09-13.14,31.42-16.55,67.54-6.6,136.46,3.78,208.23.91,9.19,15.35,3.05,22,6.26,13.22,4.49,27.7,22,13.35,33.11-17.86-2.84-49.44,6.83-62.53-7.31-8.63-37.75-17.56-76.46-22-115.33-22.53-261.8,45.63-64.77-169.63-178.51-77.44-67.36-33.88,6.16-111.86,96.42-74.72,105.08-149.29,53.49-98.53,156.28,6.13,18.42,36,2.9,46.42,30,2.24,25.85-44.15,6.45-60.4,12.16-27.34-30.22-29.49-83.28-55-118.5,64.38-45.1,115.37-143.67,101.13-216.35C784.91,555.63,706.17,587.7,578.49,602.21c-50.61,24.69-88,73.81-107,125.71-6.44,10,17.08,8.65,21,16.29,5,5,15.62,19.91,9.56,26-55.55-.56-91.27,16.13-60.43-56.32,24.57-65.21,60.73-138.39,128.62-167.09,70-18.07,113.11-82.89,131.48-148.93,3.73-7.42,15.78-51.72,1.12-45.42-85,72.81-188.11,139.08-300.08,153.9-8.36,1.3,3.89-7,5.76-8.7-17.18-6.34-49.17,2.19-70.5-3.91-4.56-4.59-18,4.95-9.64-5.2,11-13-92.83-26.4-65.57-35-29.44,2.8-57.32-22.13-83.94-33.44-36.49-20-73.82-40.16-109.89-53.88-11.58-9.68-69.39-5.14-56.4-20.31-6.5-7.06-8.27,7.85-12.58,8,12-44.54,51.55-85.36,89.19-113.91,89.26-64.6,210.62-73.74,310.79-28.34,71.36,30.44,133.5,86.58,212,98.06,41.36,2,101.63-2.91,119.2-46.49C849.58,68.63,1021.9,318.64,1304.7,120.1c37.18-19.89,78.33-31.94,120-37.06,28.72-34.25,63.48-67.48,107.58-82.46,33.2-3.61,3,78.17,5.08,99.2-2.19,28.94,51.14,70.19,62.46,103.63M331.2,295.5c23.37,7.79,65.69,17.7,93.47,10.5-34.29-10-71.18-22.17-106.15-36.65C289,255.75,254,254.78,222.45,254.48c-5.35-3.16-20.28,10.32-19.41,1,23-21.3,54.06-30.8,81.86-42.52-21.86-9.73-63.45-.73-90.81,5.13C131.7,234,72.82,273,41.67,330c57.56,20.56,132.57,56.72,194.79,88.44,16.28,6.65,31.74,20.3,48.24,23.7-11.08-18.27-36.57-32.1-52.34-49.21-11.38-16-19.31-41.3-39-50.92-30.65-24.18,128,10.72,129.1,2.28C303.33,326,274.32,316,255.83,301.72c-3.75-4-8.7,5.28-12.38-3.24,13.52-4.09,32.84-4.44,47.69-1.58,10-3.44,27.82,8.54,33.4-1.24m971,146c67-40.28,78-152.56,155.61-187.52-61.79-23-108.36,71.73-148.51,110.71C1279,410.49,1199.09,439.62,1295.51,441.7Zm213.92-335.83c10.48-2.29,19.34-45.47,19.84-57C1538.75,8.42,1500.47,52,1492,65,1469.75,88.16,1483.3,100.44,1509.43,105.87Zm-2.3,63.82c6.84,7.73,30.19,13.41,33.16,3.48A232.39,232.39,0,0,0,1507,146.78c-7.38-5.56-3.6,7.34-8.18,9.82"/></svg>